<svg xmlns="http://www.w3.org/2000/svg" viewBox="0 0 512 512">
  <defs>
    <linearGradient id="g" x1="0" y1="0" x2="0" y2="1"><stop offset="0" stop-color="#E8835A"/><stop offset="1" stop-color="#C95A3B"/></linearGradient>
    <linearGradient id="sh" x1="0" y1="0" x2="0" y2="1"><stop offset="0" stop-color="#fff" stop-opacity="0.16"/><stop offset="0.5" stop-color="#fff" stop-opacity="0"/></linearGradient>
  </defs>
  <rect width="512" height="512" rx="115" fill="url(#g)"/>
  <rect width="512" height="512" rx="115" fill="url(#sh)"/>
  <g transform="translate(256 256) scale(1.14) translate(-256 -256) translate(0 -33)"><path d="M 158 196 H 354 Q 382 196 382 224 L 396 400 Q 396 428 368 428 H 144 Q 116 428 116 400 L 130 224 Q 130 196 158 196 Z" fill="#FBF1E4"/><path d="M 200 206 V 198 a 56 48 0 0 1 112 0 V 206" fill="none" stroke="#FBF1E4" stroke-width="28" stroke-linecap="round"/><path d="M 202.32 319.12 L 241.36 360.6 L 312.12 280.08" fill="none" stroke="#C95A3B" stroke-width="32" stroke-linecap="round" stroke-linejoin="round"/></g>
</svg>
